<svg id="Layer_1" data-name="Layer 1" xmlns="http://www.w3.org/2000/svg" width="121" height="38" viewBox="0 0 121 38"><defs><style>.cls-1{fill:#036af5;}.cls-2{fill:#ffaf20;}</style></defs><path class="cls-1" d="M81,58c-1.94,0-3.12,1.46-3.17,3.69,0,1,0,.88,0,.8,0,.08,0,.31,0,.85a4,4,0,0,1-4.26,4.14H50.46a3.82,3.82,0,0,1-3.19-1.75,13.09,13.09,0,0,0,.23-2.42v-.92c0-.09,0-.3,0-.83C47.37,59.44,46.05,58,44.2,58S41.08,59.38,41,61.56v.92c0,.08,0,.3,0,.88a4,4,0,0,1-4.07,4.09,3.66,3.66,0,0,1-3.21-1.69,12.39,12.39,0,0,1-3.21,5.95l.36.26a10.15,10.15,0,0,0,11.94.17,5.62,5.62,0,0,1,.74-.45l.05,0a3.53,3.53,0,0,1,1,.48A10.6,10.6,0,0,0,50.46,74h23a10.68,10.68,0,0,0,11-9.91,12.18,12.18,0,0,0,0-2.49A3.36,3.36,0,0,0,81,58Z" transform="translate(-3.5 -45)"/><path class="cls-1" d="M39.23,77.12a8.16,8.16,0,0,1-4.41.7,6.53,6.53,0,0,1-1.39-.4c.25.13-.13,0,0,0l-.09,0c-2.9-1.62-5.47,2.83-2.57,4.39a11.75,11.75,0,0,0,9.84.3,2.66,2.66,0,0,0,1.8-3.14C42,77.73,40.5,76.62,39.23,77.12Z" transform="translate(-3.5 -45)"/><path class="cls-1" d="M120.81,48.15,104.27,53.7c-.09,0-.22.08-.31.13l-.21.5c-.13.3-.27.63-.42.93a7.6,7.6,0,0,1-.37.89l-.26.62-.09.17a2.93,2.93,0,0,0,3,2.46v.05a4.84,4.84,0,0,1,5.11,4.6v.21a4.87,4.87,0,0,1-4.84,4.8h-4.32a7,7,0,0,1,.21,1.88A4.89,4.89,0,0,1,99.5,75h6.41a11,11,0,0,0,10.85-10.2,1.94,1.94,0,0,0,0-.54,2,2,0,0,0,0-.54,11,11,0,0,0-3.08-6.89l9.07-3C126.11,52.66,124.17,47,120.81,48.15Z" transform="translate(-3.5 -45)"/><path class="cls-1" d="M100.89,70.88v-.67a.63.63,0,0,0,0-.27v-.09l0-.22v-.09l0-.17,0-.09a.61.61,0,0,0-.08-.26,3.94,3.94,0,0,0-.21-.69c-.09-.17-.13-.37-.21-.55a.32.32,0,0,0-.09-.17l-1.26-3.37c1.22-3.19,2.53-6.89,3-8,.74-2,1.52-3.78,2.27-5.79.87-2.33.26-4.38-1.51-5.15s-3.58.17-4.44,2.42c-.62,1.55-1.63,4.25-2.74,7.16v0l-1.18,2.65-1.18-2.65v0c-.19-.51-.38-1-.57-1.45-.21.55-.4,1-.57,1.47a5.43,5.43,0,0,1-4.42,3.81c.59,1.61,1.35,3.7,2.06,5.59L88.3,67.63a.38.38,0,0,0-.08.17c-.09.18-.13.38-.22.55s-.15.46-.21.69a.79.79,0,0,0-.08.26l0,.09,0,.17v.09l0,.22v0a.75.75,0,0,0,0,.26v.66a4.15,4.15,0,0,0,2.7,3.79A5,5,0,0,0,92,75H96.4a4.55,4.55,0,0,0,1.79-.37A4.09,4.09,0,0,0,100.89,70.88Zm-5.62-.06h0a1.26,1.26,0,0,1-1.09.55,1.29,1.29,0,0,1-1.1-.55c-.61-.77-1.13-1.65-.82-2.09a3.42,3.42,0,0,1,3.84,0C96.41,69.17,95.88,70.05,95.27,70.82Z" transform="translate(-3.5 -45)"/><path class="cls-1" d="M88.37,56.6a3.08,3.08,0,0,0,.48-.32l.43-.37c.07-.07.13-.16.2-.23a5.11,5.11,0,0,0,.84-1.4c.29-.74.7-1.7,1.15-2.83a.31.31,0,0,0,0-.31.32.32,0,0,0-.27-.14H84.12c-.07.17-.14.33-.2.52-.93,2.36-.28,4.44,1.62,5.21a3.83,3.83,0,0,0,1,.25l.27,0a3.27,3.27,0,0,0,1-.17C88.06,56.76,88.22,56.68,88.37,56.6Z" transform="translate(-3.5 -45)"/><path class="cls-2" d="M22.39,54a0,0,0,0,0,0,0h0a3,3,0,0,0,3.07-2.91V51a3.13,3.13,0,0,0-2.93-3,3.06,3.06,0,0,0-3.07,3v0A2.94,2.94,0,0,0,22.39,54Z" transform="translate(-3.5 -45)"/><path class="cls-2" d="M32.41,61.2c0-2.36-1.41-3.81-3.37-3.81s-3.29,1.5-3.33,3.9V63c0,1.93-.9,3.48-2.78,4-.15,0-.84,0-1.45.09a9,9,0,0,0-4.23-8.77A9.23,9.23,0,0,0,4.76,61.38,9.31,9.31,0,0,0,7.83,73.92,10.51,10.51,0,0,0,10.57,75c-.09.13-.17.31-.27.47-.59,1-1.19,2-1.79,3-2.06,3.35,3.2,6.48,5.26,3.09,1.41-2.31,2.78-4.6,4.21-7l.42-.67c3.18.22,7.19-.11,9.86-2.33l.17-.13a11.4,11.4,0,0,0,4.07-8.6C32.41,60.84,32.46,63.22,32.41,61.2ZM12.53,69.52a3.38,3.38,0,0,1-2.42-1,3.46,3.46,0,0,1,0-4.87,3.4,3.4,0,0,1,4.84,0,3.44,3.44,0,0,1-2.42,5.87Z" transform="translate(-3.5 -45)"/></svg>