<svg xmlns="http://www.w3.org/2000/svg" width="46" height="46" viewBox="0 0 46 46">
  <g id="icons8-aparat" transform="translate(-5 -5)">
    <path id="Path_131" data-name="Path 131" d="M25.435,6.375,20.212,5.2a7.908,7.908,0,0,0-9.457,5.973l-1.19,5.267A21.8,21.8,0,0,1,25.435,6.375ZM6.375,30.565,5.2,35.789a7.908,7.908,0,0,0,5.973,9.457l5.267,1.19A21.8,21.8,0,0,1,6.375,30.565Zm38.456-19.81-5.267-1.19A21.8,21.8,0,0,1,49.625,25.434L50.8,20.21A7.908,7.908,0,0,0,44.831,10.755ZM30.565,49.625,35.789,50.8a7.908,7.908,0,0,0,9.457-5.973l1.19-5.267A21.8,21.8,0,0,1,30.565,49.625Z" transform="translate(0 0)" fill="#263238"/>
    <path id="Path_132" data-name="Path 132" d="M27.306,8A19.306,19.306,0,1,0,46.611,27.306,19.3,19.3,0,0,0,27.306,8Zm-4.826,6.033a4.826,4.826,0,1,1-4.826,4.826A4.827,4.827,0,0,1,22.479,14.033Zm-3.62,22.925a4.826,4.826,0,1,1,4.826-4.826A4.827,4.827,0,0,1,18.859,36.958Zm6.033-9.653a2.413,2.413,0,1,1,2.413,2.413A2.413,2.413,0,0,1,24.892,27.306Zm7.24,13.273a4.826,4.826,0,1,1,4.826-4.826A4.827,4.827,0,0,1,32.132,40.578Zm3.62-13.273a4.826,4.826,0,1,1,4.826-4.826A4.827,4.827,0,0,1,35.752,27.306Z" transform="translate(0.694 0.694)" fill="#e91e63"/>
  </g>
</svg>
